<mxfile host="65bd71144e" modified="2020-12-01T16:23:18.675Z" agent="5.0 (Macintosh; Intel Mac OS X 10_15_6) AppleWebKit/537.36 (KHTML, like Gecko) Code/1.51.1 Chrome/83.0.4103.122 Electron/9.3.3 Safari/537.36" etag="4fQGe1MkWm3uRMOFoG7J" version="13.6.5">
    <diagram id="fc7QaSTzdH3e7NJkitbR" name="插件化">
        <mxGraphModel dx="3416" dy="1021" grid="1" gridSize="10" guides="1" tooltips="1" connect="1" arrows="1" fold="1" page="1" pageScale="1" pageWidth="827" pageHeight="1169" math="0" shadow="0">
            <root>
                <mxCell id="0"/>
                <mxCell id="1" parent="0"/>
                <mxCell id="14" value="" style="group" parent="1" vertex="1" connectable="0">
                    <mxGeometry x="-760" y="40" width="530" height="310" as="geometry"/>
                </mxCell>
                <mxCell id="2" value="ClassLoader" style="rounded=0;whiteSpace=wrap;html=1;fillColor=#60a917;strokeColor=#2D7600;fontColor=#ffffff;" parent="14" vertex="1">
                    <mxGeometry y="40" width="120" height="60" as="geometry"/>
                </mxCell>
                <mxCell id="3" value="宿主&lt;br&gt;dexElements" style="rounded=0;whiteSpace=wrap;html=1;fillColor=#0050ef;strokeColor=#001DBC;fontColor=#ffffff;" parent="14" vertex="1">
                    <mxGeometry x="220" y="40" width="120" height="60" as="geometry"/>
                </mxCell>
                <mxCell id="8" style="edgeStyle=orthogonalEdgeStyle;rounded=0;orthogonalLoop=1;jettySize=auto;html=1;entryX=0;entryY=0.5;entryDx=0;entryDy=0;" parent="14" source="2" target="3" edge="1">
                    <mxGeometry relative="1" as="geometry"/>
                </mxCell>
                <mxCell id="9" value="加载" style="edgeLabel;html=1;align=center;verticalAlign=middle;resizable=0;points=[];" parent="8" vertex="1" connectable="0">
                    <mxGeometry x="-0.0599" y="1" relative="1" as="geometry">
                        <mxPoint as="offset"/>
                    </mxGeometry>
                </mxCell>
                <mxCell id="4" value="ClassLoader" style="rounded=0;whiteSpace=wrap;html=1;fillColor=#60a917;strokeColor=#2D7600;fontColor=#ffffff;" parent="14" vertex="1">
                    <mxGeometry y="190" width="120" height="60" as="geometry"/>
                </mxCell>
                <mxCell id="5" value="" style="rounded=0;whiteSpace=wrap;html=1;fillColor=#d80073;strokeColor=#A50040;fontColor=#ffffff;" parent="14" vertex="1">
                    <mxGeometry x="220" y="150" width="310" height="160" as="geometry"/>
                </mxCell>
                <mxCell id="10" style="edgeStyle=orthogonalEdgeStyle;rounded=0;orthogonalLoop=1;jettySize=auto;html=1;entryX=0;entryY=0.436;entryDx=0;entryDy=0;entryPerimeter=0;" parent="14" source="4" target="5" edge="1">
                    <mxGeometry relative="1" as="geometry"/>
                </mxCell>
                <mxCell id="6" value="插件&lt;br&gt;dexElements" style="rounded=0;whiteSpace=wrap;html=1;fillColor=#6a00ff;strokeColor=#3700CC;fontColor=#ffffff;" parent="14" vertex="1">
                    <mxGeometry x="390" y="230" width="120" height="60" as="geometry"/>
                </mxCell>
                <mxCell id="7" value="宿主&lt;br&gt;dexElements" style="rounded=0;whiteSpace=wrap;html=1;fillColor=#6a00ff;strokeColor=#3700CC;fontColor=#ffffff;" parent="14" vertex="1">
                    <mxGeometry x="240" y="230" width="120" height="60" as="geometry"/>
                </mxCell>
                <mxCell id="11" value="加载" style="text;html=1;align=center;verticalAlign=middle;resizable=0;points=[];autosize=1;" parent="14" vertex="1">
                    <mxGeometry x="150" y="210" width="40" height="20" as="geometry"/>
                </mxCell>
                <mxCell id="12" value="新的宿主&lt;br&gt;dexElements" style="text;html=1;align=center;verticalAlign=middle;resizable=0;points=[];autosize=1;" parent="14" vertex="1">
                    <mxGeometry x="327" y="160" width="80" height="30" as="geometry"/>
                </mxCell>
                <mxCell id="13" value="&lt;font style=&quot;font-size: 20px&quot; color=&quot;#66cc00&quot;&gt;插件类加载&lt;/font&gt;" style="text;html=1;align=center;verticalAlign=middle;resizable=0;points=[];autosize=1;" parent="14" vertex="1">
                    <mxGeometry x="10" width="120" height="20" as="geometry"/>
                </mxCell>
                <mxCell id="48" value="" style="group" parent="1" vertex="1" connectable="0">
                    <mxGeometry x="-780" y="480" width="707" height="330" as="geometry"/>
                </mxCell>
                <mxCell id="15" value="&lt;font style=&quot;font-size: 20px&quot; color=&quot;#66cc00&quot;&gt;Android Activity 加载&lt;/font&gt;" style="text;html=1;align=center;verticalAlign=middle;resizable=0;points=[];autosize=1;" parent="48" vertex="1">
                    <mxGeometry x="7" width="200" height="20" as="geometry"/>
                </mxCell>
                <mxCell id="16" value="" style="rounded=0;whiteSpace=wrap;html=1;" parent="48" vertex="1">
                    <mxGeometry y="50" width="147" height="280" as="geometry"/>
                </mxCell>
                <mxCell id="26" style="edgeStyle=orthogonalEdgeStyle;rounded=0;orthogonalLoop=1;jettySize=auto;html=1;entryX=0;entryY=0.161;entryDx=0;entryDy=0;entryPerimeter=0;" parent="48" target="24" edge="1">
                    <mxGeometry relative="1" as="geometry">
                        <mxPoint x="547" y="100" as="sourcePoint"/>
                        <Array as="points">
                            <mxPoint x="547" y="95"/>
                        </Array>
                    </mxGeometry>
                </mxCell>
                <mxCell id="17" value="" style="rounded=0;whiteSpace=wrap;html=1;" parent="48" vertex="1">
                    <mxGeometry x="197" y="50" width="350" height="280" as="geometry"/>
                </mxCell>
                <mxCell id="25" style="edgeStyle=orthogonalEdgeStyle;rounded=0;orthogonalLoop=1;jettySize=auto;html=1;entryX=0.003;entryY=0.179;entryDx=0;entryDy=0;entryPerimeter=0;" parent="48" source="22" target="17" edge="1">
                    <mxGeometry relative="1" as="geometry"/>
                </mxCell>
                <mxCell id="22" value="宿主APP" style="rounded=0;whiteSpace=wrap;html=1;fillColor=#6a00ff;strokeColor=#3700CC;fontColor=#ffffff;" parent="48" vertex="1">
                    <mxGeometry x="13.5" y="70" width="120" height="60" as="geometry"/>
                </mxCell>
                <mxCell id="23" value="插件中的&lt;br&gt;MainActivity" style="rounded=0;whiteSpace=wrap;html=1;fillColor=#f0a30a;strokeColor=#BD7000;fontColor=#ffffff;" parent="48" vertex="1">
                    <mxGeometry x="13.5" y="230" width="120" height="60" as="geometry"/>
                </mxCell>
                <mxCell id="30" style="edgeStyle=orthogonalEdgeStyle;rounded=0;orthogonalLoop=1;jettySize=auto;html=1;entryX=1;entryY=0.5;entryDx=0;entryDy=0;" parent="48" source="17" target="23" edge="1">
                    <mxGeometry relative="1" as="geometry">
                        <Array as="points">
                            <mxPoint x="177" y="260"/>
                            <mxPoint x="177" y="260"/>
                        </Array>
                    </mxGeometry>
                </mxCell>
                <mxCell id="43" style="edgeStyle=orthogonalEdgeStyle;rounded=0;orthogonalLoop=1;jettySize=auto;html=1;" parent="48" source="22" target="23" edge="1">
                    <mxGeometry relative="1" as="geometry"/>
                </mxCell>
                <mxCell id="27" style="edgeStyle=orthogonalEdgeStyle;rounded=0;orthogonalLoop=1;jettySize=auto;html=1;" parent="48" source="24" edge="1">
                    <mxGeometry relative="1" as="geometry">
                        <mxPoint x="547" y="260" as="targetPoint"/>
                        <Array as="points">
                            <mxPoint x="547" y="260"/>
                        </Array>
                    </mxGeometry>
                </mxCell>
                <mxCell id="24" value="AMS&lt;br&gt;检查Activity是否注册" style="rounded=0;whiteSpace=wrap;html=1;fillColor=#647687;strokeColor=#314354;fontColor=#ffffff;" parent="48" vertex="1">
                    <mxGeometry x="587" y="50" width="120" height="280" as="geometry"/>
                </mxCell>
                <mxCell id="31" value="插件中的&lt;br&gt;MainActivity" style="ellipse;whiteSpace=wrap;html=1;" parent="48" vertex="1">
                    <mxGeometry x="197" y="220" width="120" height="80" as="geometry"/>
                </mxCell>
                <mxCell id="38" style="edgeStyle=orthogonalEdgeStyle;rounded=0;orthogonalLoop=1;jettySize=auto;html=1;entryX=1;entryY=0.5;entryDx=0;entryDy=0;dashed=1;" parent="48" source="33" target="31" edge="1">
                    <mxGeometry relative="1" as="geometry"/>
                </mxCell>
                <mxCell id="42" value="替换" style="edgeLabel;html=1;align=center;verticalAlign=middle;resizable=0;points=[];" parent="38" vertex="1" connectable="0">
                    <mxGeometry x="0.109" y="4" relative="1" as="geometry">
                        <mxPoint as="offset"/>
                    </mxGeometry>
                </mxCell>
                <mxCell id="33" value="&lt;span&gt;宿主中的&lt;/span&gt;&lt;br&gt;&lt;span&gt;ProxyActivity&lt;/span&gt;" style="ellipse;whiteSpace=wrap;html=1;" parent="48" vertex="1">
                    <mxGeometry x="427" y="220" width="120" height="80" as="geometry"/>
                </mxCell>
                <mxCell id="34" value="宿主中的&lt;br&gt;ProxyActivity" style="ellipse;whiteSpace=wrap;html=1;" parent="48" vertex="1">
                    <mxGeometry x="427" y="60" width="120" height="80" as="geometry"/>
                </mxCell>
                <mxCell id="40" style="edgeStyle=orthogonalEdgeStyle;rounded=0;orthogonalLoop=1;jettySize=auto;html=1;dashed=1;" parent="48" source="35" target="34" edge="1">
                    <mxGeometry relative="1" as="geometry"/>
                </mxCell>
                <mxCell id="41" value="替换" style="edgeLabel;html=1;align=center;verticalAlign=middle;resizable=0;points=[];" parent="40" vertex="1" connectable="0">
                    <mxGeometry x="-0.2726" y="4" relative="1" as="geometry">
                        <mxPoint as="offset"/>
                    </mxGeometry>
                </mxCell>
                <mxCell id="35" value="插件中的&lt;br&gt;MainActivity" style="ellipse;whiteSpace=wrap;html=1;" parent="48" vertex="1">
                    <mxGeometry x="197" y="60" width="120" height="80" as="geometry"/>
                </mxCell>
                <mxCell id="44" value="HookAMS" style="text;html=1;align=center;verticalAlign=middle;resizable=0;points=[];autosize=1;fillColor=#fa6800;strokeColor=#C73500;fontColor=#ffffff;" parent="48" vertex="1">
                    <mxGeometry x="327" y="60" width="70" height="20" as="geometry"/>
                </mxCell>
                <mxCell id="45" value="HookHandler" style="text;html=1;align=center;verticalAlign=middle;resizable=0;points=[];autosize=1;fillColor=#fa6800;strokeColor=#C73500;fontColor=#ffffff;" parent="48" vertex="1">
                    <mxGeometry x="324" y="290" width="90" height="20" as="geometry"/>
                </mxCell>
                <mxCell id="72" value="" style="group" parent="1" vertex="1" connectable="0">
                    <mxGeometry x="40" y="20" width="750" height="345" as="geometry"/>
                </mxCell>
                <mxCell id="49" value="Launcher" style="shape=umlLifeline;perimeter=lifelinePerimeter;whiteSpace=wrap;html=1;container=1;collapsible=0;recursiveResize=0;outlineConnect=0;" parent="72" vertex="1">
                    <mxGeometry y="60" width="110" height="285" as="geometry"/>
                </mxCell>
                <mxCell id="58" value="" style="html=1;points=[];perimeter=orthogonalPerimeter;" parent="49" vertex="1">
                    <mxGeometry x="50" y="60" width="10" height="80" as="geometry"/>
                </mxCell>
                <mxCell id="50" value="&lt;font style=&quot;font-size: 20px&quot; color=&quot;#66cc00&quot;&gt;Launcher 请求 AMS&lt;/font&gt;" style="text;html=1;align=center;verticalAlign=middle;resizable=0;points=[];autosize=1;" parent="72" vertex="1">
                    <mxGeometry x="5" width="190" height="20" as="geometry"/>
                </mxCell>
                <mxCell id="51" value="IActivityManager" style="shape=umlLifeline;perimeter=lifelinePerimeter;whiteSpace=wrap;html=1;container=1;collapsible=0;recursiveResize=0;outlineConnect=0;" parent="72" vertex="1">
                    <mxGeometry x="480" y="60" width="110" height="285" as="geometry"/>
                </mxCell>
                <mxCell id="65" value="" style="html=1;points=[];perimeter=orthogonalPerimeter;" parent="51" vertex="1">
                    <mxGeometry x="50" y="170" width="10" height="80" as="geometry"/>
                </mxCell>
                <mxCell id="52" value="Instrumentation" style="shape=umlLifeline;perimeter=lifelinePerimeter;whiteSpace=wrap;html=1;container=1;collapsible=0;recursiveResize=0;outlineConnect=0;" parent="72" vertex="1">
                    <mxGeometry x="319" y="60" width="110" height="285" as="geometry"/>
                </mxCell>
                <mxCell id="62" value="" style="html=1;points=[];perimeter=orthogonalPerimeter;" parent="52" vertex="1">
                    <mxGeometry x="50" y="140" width="10" height="80" as="geometry"/>
                </mxCell>
                <mxCell id="53" value="Activity" style="shape=umlLifeline;perimeter=lifelinePerimeter;whiteSpace=wrap;html=1;container=1;collapsible=0;recursiveResize=0;outlineConnect=0;" parent="72" vertex="1">
                    <mxGeometry x="160" y="60" width="110" height="285" as="geometry"/>
                </mxCell>
                <mxCell id="56" value="" style="html=1;points=[];perimeter=orthogonalPerimeter;" parent="53" vertex="1">
                    <mxGeometry x="50" y="80" width="10" height="140" as="geometry"/>
                </mxCell>
                <mxCell id="57" value="startActivityForResult" style="edgeStyle=orthogonalEdgeStyle;html=1;align=left;spacingLeft=2;endArrow=block;rounded=0;entryX=1;entryY=0;" parent="53" target="56" edge="1">
                    <mxGeometry relative="1" as="geometry">
                        <mxPoint x="60" y="130" as="sourcePoint"/>
                        <Array as="points">
                            <mxPoint x="110" y="130"/>
                            <mxPoint x="110" y="80"/>
                        </Array>
                    </mxGeometry>
                </mxCell>
                <mxCell id="54" value="AMS" style="shape=umlLifeline;perimeter=lifelinePerimeter;whiteSpace=wrap;html=1;container=1;collapsible=0;recursiveResize=0;outlineConnect=0;" parent="72" vertex="1">
                    <mxGeometry x="640" y="60" width="110" height="285" as="geometry"/>
                </mxCell>
                <mxCell id="69" value="" style="html=1;points=[];perimeter=orthogonalPerimeter;" parent="54" vertex="1">
                    <mxGeometry x="50" y="181" width="10" height="80" as="geometry"/>
                </mxCell>
                <mxCell id="59" style="edgeStyle=orthogonalEdgeStyle;rounded=0;orthogonalLoop=1;jettySize=auto;html=1;entryX=0.121;entryY=0.146;entryDx=0;entryDy=0;entryPerimeter=0;" parent="72" source="58" target="56" edge="1">
                    <mxGeometry relative="1" as="geometry"/>
                </mxCell>
                <mxCell id="60" value="startActivity" style="edgeLabel;html=1;align=center;verticalAlign=middle;resizable=0;points=[];" parent="59" vertex="1" connectable="0">
                    <mxGeometry x="-0.1926" y="2" relative="1" as="geometry">
                        <mxPoint as="offset"/>
                    </mxGeometry>
                </mxCell>
                <mxCell id="63" style="edgeStyle=orthogonalEdgeStyle;rounded=0;orthogonalLoop=1;jettySize=auto;html=1;" parent="72" source="56" target="62" edge="1">
                    <mxGeometry relative="1" as="geometry">
                        <Array as="points">
                            <mxPoint x="260" y="240"/>
                            <mxPoint x="260" y="240"/>
                        </Array>
                    </mxGeometry>
                </mxCell>
                <mxCell id="64" value="execStartActivity" style="edgeLabel;html=1;align=center;verticalAlign=middle;resizable=0;points=[];" parent="63" vertex="1" connectable="0">
                    <mxGeometry x="-0.0845" y="-1" relative="1" as="geometry">
                        <mxPoint as="offset"/>
                    </mxGeometry>
                </mxCell>
                <mxCell id="66" style="edgeStyle=orthogonalEdgeStyle;rounded=0;orthogonalLoop=1;jettySize=auto;html=1;entryX=-0.079;entryY=0.138;entryDx=0;entryDy=0;entryPerimeter=0;" parent="72" source="62" target="65" edge="1">
                    <mxGeometry relative="1" as="geometry">
                        <Array as="points">
                            <mxPoint x="420" y="241"/>
                            <mxPoint x="420" y="241"/>
                        </Array>
                    </mxGeometry>
                </mxCell>
                <mxCell id="67" value="startActivity" style="edgeLabel;html=1;align=center;verticalAlign=middle;resizable=0;points=[];" parent="66" vertex="1" connectable="0">
                    <mxGeometry x="-0.4114" y="-2" relative="1" as="geometry">
                        <mxPoint as="offset"/>
                    </mxGeometry>
                </mxCell>
                <mxCell id="70" style="edgeStyle=orthogonalEdgeStyle;rounded=0;orthogonalLoop=1;jettySize=auto;html=1;entryX=-0.179;entryY=0.363;entryDx=0;entryDy=0;entryPerimeter=0;" parent="72" source="65" target="69" edge="1">
                    <mxGeometry relative="1" as="geometry"/>
                </mxCell>
                <mxCell id="71" value="startActivity" style="edgeLabel;html=1;align=center;verticalAlign=middle;resizable=0;points=[];" parent="70" vertex="1" connectable="0">
                    <mxGeometry x="-0.1066" y="-2" relative="1" as="geometry">
                        <mxPoint as="offset"/>
                    </mxGeometry>
                </mxCell>
                <mxCell id="117" value="Hook" style="text;html=1;align=center;verticalAlign=middle;resizable=0;points=[];autosize=1;" parent="1" vertex="1">
                    <mxGeometry x="-770" y="860" width="40" height="20" as="geometry"/>
                </mxCell>
                <mxCell id="118" value="putlic" style="rounded=0;whiteSpace=wrap;html=1;" parent="1" vertex="1">
                    <mxGeometry x="-430" y="900" width="120" height="60" as="geometry"/>
                </mxCell>
                <mxCell id="119" value="public" style="rounded=0;whiteSpace=wrap;html=1;" parent="1" vertex="1">
                    <mxGeometry x="-620" y="900" width="120" height="60" as="geometry"/>
                </mxCell>
                <mxCell id="120" value="public" style="rounded=0;whiteSpace=wrap;html=1;" parent="1" vertex="1">
                    <mxGeometry x="-770" y="900" width="120" height="60" as="geometry"/>
                </mxCell>
                <mxCell id="121" value="底层" style="rounded=0;whiteSpace=wrap;html=1;" parent="1" vertex="1">
                    <mxGeometry x="-660" y="1130" width="120" height="30" as="geometry"/>
                </mxCell>
                <mxCell id="122" value="private" style="rounded=0;whiteSpace=wrap;html=1;" parent="1" vertex="1">
                    <mxGeometry x="-660" y="1020" width="120" height="40" as="geometry"/>
                </mxCell>
                <mxCell id="123" value="native" style="rounded=0;whiteSpace=wrap;html=1;" parent="1" vertex="1">
                    <mxGeometry x="-660" y="1070" width="120" height="40" as="geometry"/>
                </mxCell>
                <mxCell id="124" value="" style="endArrow=classic;html=1;exitX=1;exitY=0;exitDx=0;exitDy=0;entryX=0;entryY=1;entryDx=0;entryDy=0;" parent="1" source="122" target="118" edge="1">
                    <mxGeometry width="50" height="50" relative="1" as="geometry">
                        <mxPoint x="-430" y="970" as="sourcePoint"/>
                        <mxPoint x="-380" y="920" as="targetPoint"/>
                    </mxGeometry>
                </mxCell>
                <mxCell id="125" value="" style="endArrow=classic;html=1;exitX=0.57;exitY=-0.06;exitDx=0;exitDy=0;exitPerimeter=0;entryX=0.417;entryY=1.027;entryDx=0;entryDy=0;entryPerimeter=0;" parent="1" source="122" target="119" edge="1">
                    <mxGeometry width="50" height="50" relative="1" as="geometry">
                        <mxPoint x="-430" y="970" as="sourcePoint"/>
                        <mxPoint x="-380" y="920" as="targetPoint"/>
                    </mxGeometry>
                </mxCell>
                <mxCell id="127" value="" style="endArrow=classic;html=1;exitX=0.5;exitY=0;exitDx=0;exitDy=0;entryX=1;entryY=1;entryDx=0;entryDy=0;" parent="1" source="122" target="120" edge="1">
                    <mxGeometry width="50" height="50" relative="1" as="geometry">
                        <mxPoint x="-581.5999999999999" y="1027.6" as="sourcePoint"/>
                        <mxPoint x="-580" y="955" as="targetPoint"/>
                    </mxGeometry>
                </mxCell>
                <mxCell id="129" value="选public侵入性最小" style="text;html=1;align=center;verticalAlign=middle;resizable=0;points=[];autosize=1;" parent="1" vertex="1">
                    <mxGeometry x="-290" y="930" width="120" height="20" as="geometry"/>
                </mxCell>
                <mxCell id="145" value="" style="group" parent="1" vertex="1" connectable="0">
                    <mxGeometry x="40" y="730" width="750" height="355" as="geometry"/>
                </mxCell>
                <mxCell id="74" value="&lt;span style=&quot;color: rgb(102 , 204 , 0) ; font-family: &amp;#34;helvetica&amp;#34; ; font-size: 20px ; font-style: normal ; font-weight: 400 ; letter-spacing: normal ; text-align: center ; text-indent: 0px ; text-transform: none ; word-spacing: 0px ; background-color: rgb(42 , 42 , 42) ; display: inline ; float: none&quot;&gt;ActivityThread到Activity启动&lt;/span&gt;" style="text;whiteSpace=wrap;html=1;" parent="145" vertex="1">
                    <mxGeometry width="260" height="30" as="geometry"/>
                </mxCell>
                <mxCell id="103" value="ApplicationThread" style="shape=umlLifeline;perimeter=lifelinePerimeter;whiteSpace=wrap;html=1;container=1;collapsible=0;recursiveResize=0;outlineConnect=0;" parent="145" vertex="1">
                    <mxGeometry y="70" width="110" height="285" as="geometry"/>
                </mxCell>
                <mxCell id="104" value="" style="html=1;points=[];perimeter=orthogonalPerimeter;" parent="103" vertex="1">
                    <mxGeometry x="50" y="60" width="10" height="120" as="geometry"/>
                </mxCell>
                <mxCell id="105" value="&lt;font style=&quot;font-size: 18px&quot; color=&quot;#fffdeb&quot;&gt;scheduleLaunchActivity&lt;/font&gt;" style="html=1;verticalAlign=bottom;endArrow=block;entryX=0;entryY=0;" parent="103" target="104" edge="1">
                    <mxGeometry relative="1" as="geometry">
                        <mxPoint x="-20" y="60" as="sourcePoint"/>
                    </mxGeometry>
                </mxCell>
                <mxCell id="108" value="ActivityThread" style="shape=umlLifeline;perimeter=lifelinePerimeter;whiteSpace=wrap;html=1;container=1;collapsible=0;recursiveResize=0;outlineConnect=0;" parent="145" vertex="1">
                    <mxGeometry x="160" y="70" width="110" height="285" as="geometry"/>
                </mxCell>
                <mxCell id="109" value="" style="html=1;points=[];perimeter=orthogonalPerimeter;" parent="108" vertex="1">
                    <mxGeometry x="50" y="85" width="10" height="55" as="geometry"/>
                </mxCell>
                <mxCell id="116" value="" style="html=1;points=[];perimeter=orthogonalPerimeter;" parent="108" vertex="1">
                    <mxGeometry x="50" y="171" width="10" height="99" as="geometry"/>
                </mxCell>
                <mxCell id="110" value="H" style="shape=umlLifeline;perimeter=lifelinePerimeter;whiteSpace=wrap;html=1;container=1;collapsible=0;recursiveResize=0;outlineConnect=0;" parent="145" vertex="1">
                    <mxGeometry x="300" y="70" width="150" height="285" as="geometry"/>
                </mxCell>
                <mxCell id="111" value="" style="html=1;points=[];perimeter=orthogonalPerimeter;" parent="110" vertex="1">
                    <mxGeometry x="69" y="100" width="10" height="90" as="geometry"/>
                </mxCell>
                <mxCell id="112" value="Instrumentation" style="shape=umlLifeline;perimeter=lifelinePerimeter;whiteSpace=wrap;html=1;container=1;collapsible=0;recursiveResize=0;outlineConnect=0;" parent="145" vertex="1">
                    <mxGeometry x="490" y="70" width="110" height="285" as="geometry"/>
                </mxCell>
                <mxCell id="113" value="" style="html=1;points=[];perimeter=orthogonalPerimeter;" parent="112" vertex="1">
                    <mxGeometry x="50" y="205" width="10" height="80" as="geometry"/>
                </mxCell>
                <mxCell id="114" value="Activity" style="shape=umlLifeline;perimeter=lifelinePerimeter;whiteSpace=wrap;html=1;container=1;collapsible=0;recursiveResize=0;outlineConnect=0;" parent="145" vertex="1">
                    <mxGeometry x="640" y="70" width="110" height="285" as="geometry"/>
                </mxCell>
                <mxCell id="115" value="" style="html=1;points=[];perimeter=orthogonalPerimeter;" parent="114" vertex="1">
                    <mxGeometry x="50" y="205" width="10" height="80" as="geometry"/>
                </mxCell>
                <mxCell id="143" style="edgeStyle=orthogonalEdgeStyle;rounded=0;orthogonalLoop=1;jettySize=auto;html=1;entryX=1.121;entryY=0.76;entryDx=0;entryDy=0;entryPerimeter=0;fontSize=14;" parent="114" source="115" target="115" edge="1">
                    <mxGeometry relative="1" as="geometry">
                        <Array as="points">
                            <mxPoint x="110" y="220"/>
                            <mxPoint x="110" y="266"/>
                            <mxPoint x="80" y="266"/>
                            <mxPoint x="80" y="269"/>
                            <mxPoint x="61" y="269"/>
                        </Array>
                    </mxGeometry>
                </mxCell>
                <mxCell id="144" value="onCreate" style="edgeLabel;html=1;align=center;verticalAlign=middle;resizable=0;points=[];fontSize=14;" parent="143" vertex="1" connectable="0">
                    <mxGeometry x="-0.6264" y="1" relative="1" as="geometry">
                        <mxPoint as="offset"/>
                    </mxGeometry>
                </mxCell>
                <mxCell id="130" style="edgeStyle=orthogonalEdgeStyle;rounded=0;orthogonalLoop=1;jettySize=auto;html=1;" parent="145" edge="1">
                    <mxGeometry relative="1" as="geometry">
                        <mxPoint x="220" y="311" as="targetPoint"/>
                        <Array as="points">
                            <mxPoint x="242" y="260"/>
                            <mxPoint x="242" y="311"/>
                        </Array>
                        <mxPoint x="222" y="260" as="sourcePoint"/>
                    </mxGeometry>
                </mxCell>
                <mxCell id="131" value="performLaunchActivity&lt;br style=&quot;font-size: 14px;&quot;&gt;" style="edgeLabel;html=1;align=center;verticalAlign=middle;resizable=0;points=[];fontSize=14;" parent="130" vertex="1" connectable="0">
                    <mxGeometry x="0.0346" relative="1" as="geometry">
                        <mxPoint as="offset"/>
                    </mxGeometry>
                </mxCell>
                <mxCell id="106" style="edgeStyle=orthogonalEdgeStyle;rounded=0;orthogonalLoop=1;jettySize=auto;html=1;" parent="145" source="104" target="109" edge="1">
                    <mxGeometry relative="1" as="geometry">
                        <mxPoint x="58" y="201" as="targetPoint"/>
                        <Array as="points">
                            <mxPoint x="80" y="200"/>
                            <mxPoint x="80" y="201"/>
                        </Array>
                    </mxGeometry>
                </mxCell>
                <mxCell id="107" value="sendMessage" style="edgeLabel;html=1;align=center;verticalAlign=middle;resizable=0;points=[];fontSize=14;" parent="106" vertex="1" connectable="0">
                    <mxGeometry x="0.0346" relative="1" as="geometry">
                        <mxPoint y="-18.5" as="offset"/>
                    </mxGeometry>
                </mxCell>
                <mxCell id="132" style="edgeStyle=orthogonalEdgeStyle;rounded=0;orthogonalLoop=1;jettySize=auto;html=1;fontSize=14;exitX=0.941;exitY=0.851;exitDx=0;exitDy=0;exitPerimeter=0;" parent="145" source="109" target="110" edge="1">
                    <mxGeometry relative="1" as="geometry">
                        <Array as="points">
                            <mxPoint x="320" y="202"/>
                            <mxPoint x="320" y="202"/>
                        </Array>
                    </mxGeometry>
                </mxCell>
                <mxCell id="133" value="handlerMessage" style="edgeLabel;html=1;align=center;verticalAlign=middle;resizable=0;points=[];fontSize=14;" parent="132" vertex="1" connectable="0">
                    <mxGeometry x="-0.3166" y="-2" relative="1" as="geometry">
                        <mxPoint y="-13.81" as="offset"/>
                    </mxGeometry>
                </mxCell>
                <mxCell id="134" style="edgeStyle=orthogonalEdgeStyle;rounded=0;orthogonalLoop=1;jettySize=auto;html=1;entryX=1.241;entryY=0.04;entryDx=0;entryDy=0;entryPerimeter=0;fontSize=14;" parent="145" source="111" target="116" edge="1">
                    <mxGeometry relative="1" as="geometry"/>
                </mxCell>
                <mxCell id="135" value="handleLaunchActivity" style="edgeLabel;html=1;align=center;verticalAlign=middle;resizable=0;points=[];fontSize=14;" parent="134" vertex="1" connectable="0">
                    <mxGeometry x="0.0773" y="-1" relative="1" as="geometry">
                        <mxPoint x="9.2" y="-13.2" as="offset"/>
                    </mxGeometry>
                </mxCell>
                <mxCell id="139" style="edgeStyle=orthogonalEdgeStyle;rounded=0;orthogonalLoop=1;jettySize=auto;html=1;fontSize=14;" parent="145" source="116" target="113" edge="1">
                    <mxGeometry relative="1" as="geometry">
                        <Array as="points">
                            <mxPoint x="380" y="320"/>
                            <mxPoint x="380" y="315"/>
                        </Array>
                    </mxGeometry>
                </mxCell>
                <mxCell id="140" value="callActivityOrCreate" style="edgeLabel;html=1;align=center;verticalAlign=middle;resizable=0;points=[];fontSize=14;" parent="139" vertex="1" connectable="0">
                    <mxGeometry x="0.2148" relative="1" as="geometry">
                        <mxPoint as="offset"/>
                    </mxGeometry>
                </mxCell>
                <mxCell id="141" style="edgeStyle=orthogonalEdgeStyle;rounded=0;orthogonalLoop=1;jettySize=auto;html=1;fontSize=14;" parent="145" source="113" target="115" edge="1">
                    <mxGeometry relative="1" as="geometry"/>
                </mxCell>
                <mxCell id="142" value="PerformCreate" style="edgeLabel;html=1;align=center;verticalAlign=middle;resizable=0;points=[];fontSize=14;" parent="141" vertex="1" connectable="0">
                    <mxGeometry x="-0.1799" y="-3" relative="1" as="geometry">
                        <mxPoint y="-18" as="offset"/>
                    </mxGeometry>
                </mxCell>
                <mxCell id="162" value="" style="group" parent="1" vertex="1" connectable="0">
                    <mxGeometry x="40" y="380" width="750" height="325" as="geometry"/>
                </mxCell>
                <mxCell id="73" value="&lt;span style=&quot;color: rgb(102 , 204 , 0) ; font-family: &amp;#34;helvetica&amp;#34; ; font-size: 20px ; font-style: normal ; font-weight: 400 ; letter-spacing: normal ; text-align: center ; text-indent: 0px ; text-transform: none ; word-spacing: 0px ; background-color: rgb(42 , 42 , 42) ; display: inline ; float: none&quot;&gt;AMS到AppliationThread&lt;/span&gt;" style="text;whiteSpace=wrap;html=1;" parent="162" vertex="1">
                    <mxGeometry width="230" height="30" as="geometry"/>
                </mxCell>
                <mxCell id="75" value="AMS" style="shape=umlLifeline;perimeter=lifelinePerimeter;whiteSpace=wrap;html=1;container=1;collapsible=0;recursiveResize=0;outlineConnect=0;" parent="162" vertex="1">
                    <mxGeometry y="40" width="110" height="285" as="geometry"/>
                </mxCell>
                <mxCell id="85" value="" style="html=1;points=[];perimeter=orthogonalPerimeter;" parent="75" vertex="1">
                    <mxGeometry x="50" y="60" width="10" height="120" as="geometry"/>
                </mxCell>
                <mxCell id="86" value="startActivity" style="html=1;verticalAlign=bottom;endArrow=block;entryX=0;entryY=0;" parent="75" target="85" edge="1">
                    <mxGeometry relative="1" as="geometry">
                        <mxPoint x="-20" y="60" as="sourcePoint"/>
                    </mxGeometry>
                </mxCell>
                <mxCell id="88" style="edgeStyle=orthogonalEdgeStyle;rounded=0;orthogonalLoop=1;jettySize=auto;html=1;" parent="75" source="85" edge="1">
                    <mxGeometry relative="1" as="geometry">
                        <mxPoint x="58" y="131" as="targetPoint"/>
                        <Array as="points">
                            <mxPoint x="80" y="80"/>
                            <mxPoint x="80" y="131"/>
                        </Array>
                    </mxGeometry>
                </mxCell>
                <mxCell id="89" value="StartActivityAsUser" style="edgeLabel;html=1;align=center;verticalAlign=middle;resizable=0;points=[];" parent="88" vertex="1" connectable="0">
                    <mxGeometry x="0.0346" relative="1" as="geometry">
                        <mxPoint as="offset"/>
                    </mxGeometry>
                </mxCell>
                <mxCell id="77" value="ActivityStarter" style="shape=umlLifeline;perimeter=lifelinePerimeter;whiteSpace=wrap;html=1;container=1;collapsible=0;recursiveResize=0;outlineConnect=0;" parent="162" vertex="1">
                    <mxGeometry x="160" y="40" width="110" height="285" as="geometry"/>
                </mxCell>
                <mxCell id="78" value="" style="html=1;points=[];perimeter=orthogonalPerimeter;" parent="77" vertex="1">
                    <mxGeometry x="50" y="130" width="10" height="120" as="geometry"/>
                </mxCell>
                <mxCell id="151" value="startActivityLocked" style="edgeStyle=orthogonalEdgeStyle;html=1;align=left;spacingLeft=2;endArrow=block;rounded=0;exitX=0.88;exitY=0.026;exitDx=0;exitDy=0;exitPerimeter=0;entryX=1.014;entryY=0.134;entryDx=0;entryDy=0;entryPerimeter=0;" parent="77" source="78" target="78" edge="1">
                    <mxGeometry relative="1" as="geometry">
                        <mxPoint x="75" y="130" as="sourcePoint"/>
                        <Array as="points">
                            <mxPoint x="60" y="133"/>
                            <mxPoint x="60" y="130"/>
                            <mxPoint x="80" y="130"/>
                            <mxPoint x="80" y="146"/>
                        </Array>
                        <mxPoint x="80" y="150" as="targetPoint"/>
                    </mxGeometry>
                </mxCell>
                <mxCell id="154" value="startActivity" style="edgeStyle=orthogonalEdgeStyle;html=1;align=left;spacingLeft=2;endArrow=block;rounded=0;entryX=0.847;entryY=0.676;entryDx=0;entryDy=0;entryPerimeter=0;exitX=1.18;exitY=0.571;exitDx=0;exitDy=0;exitPerimeter=0;" parent="77" source="78" target="78" edge="1">
                    <mxGeometry relative="1" as="geometry">
                        <mxPoint x="70" y="200" as="sourcePoint"/>
                        <Array as="points">
                            <mxPoint x="62" y="200"/>
                            <mxPoint x="80" y="200"/>
                            <mxPoint x="80" y="211"/>
                        </Array>
                        <mxPoint x="71.79999999999995" y="211.84000000000003" as="targetPoint"/>
                    </mxGeometry>
                </mxCell>
                <mxCell id="79" value="ActivityStackSupervisor" style="shape=umlLifeline;perimeter=lifelinePerimeter;whiteSpace=wrap;html=1;container=1;collapsible=0;recursiveResize=0;outlineConnect=0;" parent="162" vertex="1">
                    <mxGeometry x="300" y="40" width="150" height="285" as="geometry"/>
                </mxCell>
                <mxCell id="80" value="" style="html=1;points=[];perimeter=orthogonalPerimeter;" parent="79" vertex="1">
                    <mxGeometry x="69" y="120" width="10" height="160" as="geometry"/>
                </mxCell>
                <mxCell id="81" value="ActivityStack" style="shape=umlLifeline;perimeter=lifelinePerimeter;whiteSpace=wrap;html=1;container=1;collapsible=0;recursiveResize=0;outlineConnect=0;" parent="162" vertex="1">
                    <mxGeometry x="490" y="40" width="110" height="285" as="geometry"/>
                </mxCell>
                <mxCell id="82" value="" style="html=1;points=[];perimeter=orthogonalPerimeter;" parent="81" vertex="1">
                    <mxGeometry x="50" y="240" width="10" height="40" as="geometry"/>
                </mxCell>
                <mxCell id="83" value="ApplicationThread" style="shape=umlLifeline;perimeter=lifelinePerimeter;whiteSpace=wrap;html=1;container=1;collapsible=0;recursiveResize=0;outlineConnect=0;" parent="162" vertex="1">
                    <mxGeometry x="640" y="40" width="110" height="285" as="geometry"/>
                </mxCell>
                <mxCell id="84" value="" style="html=1;points=[];perimeter=orthogonalPerimeter;" parent="83" vertex="1">
                    <mxGeometry x="50" y="205" width="10" height="80" as="geometry"/>
                </mxCell>
                <mxCell id="148" value="startActivityMayWait" style="html=1;verticalAlign=bottom;endArrow=block;entryX=-0.053;entryY=0.123;entryDx=0;entryDy=0;entryPerimeter=0;" parent="162" target="78" edge="1">
                    <mxGeometry width="80" relative="1" as="geometry">
                        <mxPoint x="60" y="185" as="sourcePoint"/>
                        <mxPoint x="110" y="190" as="targetPoint"/>
                    </mxGeometry>
                </mxCell>
                <mxCell id="153" value="startActivity" style="edgeStyle=orthogonalEdgeStyle;html=1;align=left;spacingLeft=2;endArrow=block;rounded=0;entryX=1.18;entryY=0.432;entryDx=0;entryDy=0;entryPerimeter=0;" parent="162" target="78" edge="1">
                    <mxGeometry relative="1" as="geometry">
                        <mxPoint x="220" y="210" as="sourcePoint"/>
                        <Array as="points">
                            <mxPoint x="245" y="210"/>
                            <mxPoint x="245" y="222"/>
                        </Array>
                        <mxPoint x="225" y="230" as="targetPoint"/>
                    </mxGeometry>
                </mxCell>
                <mxCell id="155" value="startActivityUncheked" style="edgeStyle=orthogonalEdgeStyle;html=1;align=left;spacingLeft=2;endArrow=block;rounded=0;entryX=0.98;entryY=0.848;entryDx=0;entryDy=0;entryPerimeter=0;exitX=1.18;exitY=0.571;exitDx=0;exitDy=0;exitPerimeter=0;" parent="162" target="78" edge="1">
                    <mxGeometry relative="1" as="geometry">
                        <mxPoint x="231.79999999999995" y="258.69999999999993" as="sourcePoint"/>
                        <Array as="points">
                            <mxPoint x="220" y="259"/>
                            <mxPoint x="220" y="260"/>
                            <mxPoint x="240" y="260"/>
                            <mxPoint x="240" y="272"/>
                        </Array>
                        <mxPoint x="228.47000000000003" y="271.29999999999995" as="targetPoint"/>
                    </mxGeometry>
                </mxCell>
                <mxCell id="156" value="resumeFocusedStackTopActivityLocked" style="html=1;verticalAlign=bottom;endArrow=block;entryX=0.007;entryY=0.76;entryDx=0;entryDy=0;entryPerimeter=0;exitX=1.107;exitY=0.928;exitDx=0;exitDy=0;exitPerimeter=0;" parent="162" source="78" target="80" edge="1">
                    <mxGeometry x="-0.0829" y="-24" width="80" relative="1" as="geometry">
                        <mxPoint x="215" y="282" as="sourcePoint"/>
                        <mxPoint x="369" y="288" as="targetPoint"/>
                        <mxPoint as="offset"/>
                    </mxGeometry>
                </mxCell>
                <mxCell id="157" value="resumeTopActivityUncheckedLocked" style="html=1;verticalAlign=bottom;endArrow=block;entryX=-0.16;entryY=0.023;entryDx=0;entryDy=0;entryPerimeter=0;" parent="162" target="82" edge="1">
                    <mxGeometry x="0.0102" y="21" width="80" relative="1" as="geometry">
                        <mxPoint x="380" y="281" as="sourcePoint"/>
                        <mxPoint x="390" y="200" as="targetPoint"/>
                        <mxPoint as="offset"/>
                    </mxGeometry>
                </mxCell>
                <mxCell id="159" value="resumeTopActivityInnerLocked" style="edgeStyle=orthogonalEdgeStyle;html=1;align=left;spacingLeft=2;endArrow=block;rounded=0;entryX=1;entryY=0;" parent="162" edge="1">
                    <mxGeometry x="-0.2308" y="-56" relative="1" as="geometry">
                        <mxPoint x="550" y="280" as="sourcePoint"/>
                        <Array as="points">
                            <mxPoint x="575" y="280"/>
                            <mxPoint x="575" y="300"/>
                        </Array>
                        <mxPoint x="555" y="300" as="targetPoint"/>
                        <mxPoint x="1" y="-10" as="offset"/>
                    </mxGeometry>
                </mxCell>
                <mxCell id="160" value="startSpecificActivityLocked" style="html=1;verticalAlign=bottom;endArrow=block;entryX=0.874;entryY=0.921;entryDx=0;entryDy=0;entryPerimeter=0;" parent="162" target="80" edge="1">
                    <mxGeometry width="80" relative="1" as="geometry">
                        <mxPoint x="540" y="307" as="sourcePoint"/>
                        <mxPoint x="480" y="210" as="targetPoint"/>
                    </mxGeometry>
                </mxCell>
                <mxCell id="161" value="scheduleLaunchActivity" style="html=1;verticalAlign=bottom;endArrow=block;entryX=-0.026;entryY=0.925;entryDx=0;entryDy=0;entryPerimeter=0;exitX=1.074;exitY=0.994;exitDx=0;exitDy=0;exitPerimeter=0;" parent="162" source="80" target="84" edge="1">
                    <mxGeometry x="0.0339" y="-11" width="80" relative="1" as="geometry">
                        <mxPoint x="400" y="210" as="sourcePoint"/>
                        <mxPoint x="480" y="210" as="targetPoint"/>
                        <mxPoint as="offset"/>
                    </mxGeometry>
                </mxCell>
                <mxCell id="228" value="" style="group" parent="1" vertex="1" connectable="0">
                    <mxGeometry x="-810" y="1210" width="2000" height="570" as="geometry"/>
                </mxCell>
                <mxCell id="146" value="&lt;pre style=&quot;background-color: rgb(43 , 43 , 43) ; font-family: &amp;#34;menlo&amp;#34; , monospace&quot;&gt;&lt;font size=&quot;1&quot; color=&quot;#fffdeb&quot;&gt;&lt;b style=&quot;font-size: 14px&quot;&gt;ActivityStackSupervisor&lt;/b&gt;&lt;/font&gt;&lt;/pre&gt;" style="shape=umlLifeline;perimeter=lifelinePerimeter;whiteSpace=wrap;html=1;container=1;collapsible=0;recursiveResize=0;outlineConnect=0;" parent="228" vertex="1">
                    <mxGeometry x="20" y="50" width="200" height="520" as="geometry"/>
                </mxCell>
                <mxCell id="147" value="&lt;b&gt;&lt;font style=&quot;font-size: 20px&quot; color=&quot;#66cc00&quot;&gt;SDK 28&amp;nbsp; 启动流程&lt;/font&gt;&lt;/b&gt;" style="text;html=1;align=center;verticalAlign=middle;resizable=0;points=[];autosize=1;" parent="228" vertex="1">
                    <mxGeometry x="10" width="180" height="20" as="geometry"/>
                </mxCell>
                <mxCell id="163" value="&lt;pre style=&quot;background-color: rgb(43 , 43 , 43) ; font-family: &amp;#34;menlo&amp;#34; , monospace&quot;&gt;&lt;font style=&quot;font-size: 14px&quot; color=&quot;#fffdeb&quot;&gt;resumeFocusedStackTopActivityLocked&lt;/font&gt;&lt;/pre&gt;" style="html=1;verticalAlign=bottom;endArrow=block;entryX=0.143;entryY=0.085;entryDx=0;entryDy=0;entryPerimeter=0;" parent="228" target="164" edge="1">
                    <mxGeometry width="80" relative="1" as="geometry">
                        <mxPoint y="150" as="sourcePoint"/>
                        <mxPoint x="63" y="150" as="targetPoint"/>
                    </mxGeometry>
                </mxCell>
                <mxCell id="164" value="" style="html=1;points=[];perimeter=orthogonalPerimeter;" parent="228" vertex="1">
                    <mxGeometry x="115" y="140" width="10" height="120" as="geometry"/>
                </mxCell>
                <mxCell id="165" value="&lt;pre style=&quot;background-color: rgb(43 , 43 , 43) ; font-family: &amp;#34;menlo&amp;#34; , monospace&quot;&gt;&lt;font size=&quot;1&quot; color=&quot;#fffdeb&quot;&gt;&lt;b style=&quot;font-size: 14px&quot;&gt;ClientLyfecycleManager&lt;/b&gt;&lt;/font&gt;&lt;/pre&gt;" style="shape=umlLifeline;perimeter=lifelinePerimeter;whiteSpace=wrap;html=1;container=1;collapsible=0;recursiveResize=0;outlineConnect=0;" parent="228" vertex="1">
                    <mxGeometry x="240" y="50" width="200" height="520" as="geometry"/>
                </mxCell>
                <mxCell id="166" value="" style="html=1;points=[];perimeter=orthogonalPerimeter;" parent="165" vertex="1">
                    <mxGeometry x="95" y="150" width="10" height="80" as="geometry"/>
                </mxCell>
                <mxCell id="183" value="&lt;pre style=&quot;background-color: rgb(43 , 43 , 43) ; font-family: &amp;#34;menlo&amp;#34; , monospace&quot;&gt;&lt;font size=&quot;1&quot; color=&quot;#fffdeb&quot;&gt;&lt;b style=&quot;font-size: 14px&quot;&gt;TransactionExecutor&lt;/b&gt;&lt;/font&gt;&lt;/pre&gt;" style="shape=umlLifeline;perimeter=lifelinePerimeter;whiteSpace=wrap;html=1;container=1;collapsible=0;recursiveResize=0;outlineConnect=0;" parent="228" vertex="1">
                    <mxGeometry x="1170" y="50" width="180" height="520" as="geometry"/>
                </mxCell>
                <mxCell id="204" value="" style="html=1;points=[];perimeter=orthogonalPerimeter;" parent="183" vertex="1">
                    <mxGeometry x="85" y="260" width="10" height="80" as="geometry"/>
                </mxCell>
                <mxCell id="184" value="&lt;pre style=&quot;background-color: rgb(43 , 43 , 43) ; font-family: &amp;#34;menlo&amp;#34; , monospace&quot;&gt;&lt;font size=&quot;1&quot; color=&quot;#fffdeb&quot;&gt;&lt;b style=&quot;font-size: 14px&quot;&gt;ClientTransactionHandler&lt;/b&gt;&lt;/font&gt;&lt;/pre&gt;" style="shape=umlLifeline;perimeter=lifelinePerimeter;whiteSpace=wrap;html=1;container=1;collapsible=0;recursiveResize=0;outlineConnect=0;" parent="228" vertex="1">
                    <mxGeometry x="850" y="50" width="210" height="520" as="geometry"/>
                </mxCell>
                <mxCell id="206" value="" style="html=1;points=[];perimeter=orthogonalPerimeter;" parent="184" vertex="1">
                    <mxGeometry x="100" y="220" width="10" height="80" as="geometry"/>
                </mxCell>
                <mxCell id="185" value="&lt;pre style=&quot;background-color: rgb(43 , 43 , 43) ; font-family: &amp;#34;menlo&amp;#34; , monospace&quot;&gt;&lt;font size=&quot;1&quot; color=&quot;#fffdeb&quot;&gt;&lt;b style=&quot;font-size: 14px&quot;&gt;ApplicationThread&lt;/b&gt;&lt;/font&gt;&lt;/pre&gt;" style="shape=umlLifeline;perimeter=lifelinePerimeter;whiteSpace=wrap;html=1;container=1;collapsible=0;recursiveResize=0;outlineConnect=0;" parent="228" vertex="1">
                    <mxGeometry x="670" y="50" width="160" height="520" as="geometry"/>
                </mxCell>
                <mxCell id="203" value="" style="html=1;points=[];perimeter=orthogonalPerimeter;" parent="185" vertex="1">
                    <mxGeometry x="75" y="196" width="10" height="80" as="geometry"/>
                </mxCell>
                <mxCell id="186" value="&lt;pre style=&quot;background-color: rgb(43 , 43 , 43) ; font-family: &amp;#34;menlo&amp;#34; , monospace&quot;&gt;&lt;font size=&quot;1&quot; color=&quot;#fffdeb&quot;&gt;&lt;b style=&quot;font-size: 14px&quot;&gt;ClientTransaction&lt;/b&gt;&lt;/font&gt;&lt;/pre&gt;" style="shape=umlLifeline;perimeter=lifelinePerimeter;whiteSpace=wrap;html=1;container=1;collapsible=0;recursiveResize=0;outlineConnect=0;" parent="228" vertex="1">
                    <mxGeometry x="460" y="50" width="200" height="520" as="geometry"/>
                </mxCell>
                <mxCell id="199" value="" style="html=1;points=[];perimeter=orthogonalPerimeter;" parent="186" vertex="1">
                    <mxGeometry x="95" y="170" width="10" height="80" as="geometry"/>
                </mxCell>
                <mxCell id="187" value="&lt;pre style=&quot;background-color: rgb(43 , 43 , 43) ; font-family: &amp;#34;menlo&amp;#34; , monospace&quot;&gt;&lt;font size=&quot;1&quot; color=&quot;#fffdeb&quot;&gt;&lt;b style=&quot;font-size: 14px&quot;&gt;H&lt;/b&gt;&lt;/font&gt;&lt;/pre&gt;" style="shape=umlLifeline;perimeter=lifelinePerimeter;whiteSpace=wrap;html=1;container=1;collapsible=0;recursiveResize=0;outlineConnect=0;" parent="228" vertex="1">
                    <mxGeometry x="1080" y="50" width="70" height="510" as="geometry"/>
                </mxCell>
                <mxCell id="188" value="&lt;pre style=&quot;background-color: rgb(43 , 43 , 43) ; font-family: &amp;#34;menlo&amp;#34; , monospace&quot;&gt;&lt;font size=&quot;1&quot; color=&quot;#fffdeb&quot;&gt;&lt;b style=&quot;font-size: 14px&quot;&gt;LaunchActivityItem&lt;/b&gt;&lt;/font&gt;&lt;/pre&gt;" style="shape=umlLifeline;perimeter=lifelinePerimeter;whiteSpace=wrap;html=1;container=1;collapsible=0;recursiveResize=0;outlineConnect=0;" parent="228" vertex="1">
                    <mxGeometry x="1360" y="50" width="180" height="520" as="geometry"/>
                </mxCell>
                <mxCell id="208" value="" style="html=1;points=[];perimeter=orthogonalPerimeter;" parent="188" vertex="1">
                    <mxGeometry x="85" y="290" width="10" height="80" as="geometry"/>
                </mxCell>
                <mxCell id="189" value="&lt;pre style=&quot;background-color: rgb(43 , 43 , 43) ; font-family: &amp;#34;menlo&amp;#34; , monospace&quot;&gt;&lt;font size=&quot;1&quot; color=&quot;#fffdeb&quot;&gt;&lt;b style=&quot;font-size: 14px&quot;&gt;ActivityThread&lt;/b&gt;&lt;/font&gt;&lt;/pre&gt;" style="shape=umlLifeline;perimeter=lifelinePerimeter;whiteSpace=wrap;html=1;container=1;collapsible=0;recursiveResize=0;outlineConnect=0;" parent="228" vertex="1">
                    <mxGeometry x="1550" y="50" width="180" height="520" as="geometry"/>
                </mxCell>
                <mxCell id="207" value="" style="html=1;points=[];perimeter=orthogonalPerimeter;" parent="189" vertex="1">
                    <mxGeometry x="85" y="310" width="10" height="80" as="geometry"/>
                </mxCell>
                <mxCell id="190" value="&lt;pre style=&quot;background-color: rgb(43 , 43 , 43) ; font-family: &amp;#34;menlo&amp;#34; , monospace&quot;&gt;&lt;font size=&quot;1&quot; color=&quot;#fffdeb&quot;&gt;&lt;b style=&quot;font-size: 14px&quot;&gt;Instrumentation&lt;/b&gt;&lt;/font&gt;&lt;/pre&gt;" style="shape=umlLifeline;perimeter=lifelinePerimeter;whiteSpace=wrap;html=1;container=1;collapsible=0;recursiveResize=0;outlineConnect=0;" parent="228" vertex="1">
                    <mxGeometry x="1740" y="50" width="140" height="520" as="geometry"/>
                </mxCell>
                <mxCell id="210" value="" style="html=1;points=[];perimeter=orthogonalPerimeter;" parent="190" vertex="1">
                    <mxGeometry x="65" y="330" width="10" height="80" as="geometry"/>
                </mxCell>
                <mxCell id="191" value="&lt;pre style=&quot;background-color: rgb(43 , 43 , 43) ; font-family: &amp;#34;menlo&amp;#34; , monospace&quot;&gt;&lt;font size=&quot;1&quot; color=&quot;#fffdeb&quot;&gt;&lt;b style=&quot;font-size: 14px&quot;&gt;Actiity&lt;/b&gt;&lt;/font&gt;&lt;/pre&gt;" style="shape=umlLifeline;perimeter=lifelinePerimeter;whiteSpace=wrap;html=1;container=1;collapsible=0;recursiveResize=0;outlineConnect=0;" parent="228" vertex="1">
                    <mxGeometry x="1890" y="50" width="110" height="520" as="geometry"/>
                </mxCell>
                <mxCell id="209" value="" style="html=1;points=[];perimeter=orthogonalPerimeter;" parent="191" vertex="1">
                    <mxGeometry x="50" y="360" width="10" height="80" as="geometry"/>
                </mxCell>
                <mxCell id="193" value="realStartActivityLocked" style="edgeStyle=orthogonalEdgeStyle;html=1;align=left;spacingLeft=2;endArrow=block;rounded=0;entryX=1.057;entryY=0.423;entryDx=0;entryDy=0;entryPerimeter=0;" parent="228" target="164" edge="1">
                    <mxGeometry relative="1" as="geometry">
                        <mxPoint x="125" y="170" as="sourcePoint"/>
                        <Array as="points">
                            <mxPoint x="150" y="170"/>
                            <mxPoint x="150" y="191"/>
                        </Array>
                        <mxPoint x="130" y="190" as="targetPoint"/>
                    </mxGeometry>
                </mxCell>
                <mxCell id="194" value="scheduleTransaction" style="html=1;verticalAlign=bottom;endArrow=block;exitX=1;exitY=0.656;exitDx=0;exitDy=0;exitPerimeter=0;entryX=0.5;entryY=0.234;entryDx=0;entryDy=0;entryPerimeter=0;" parent="228" source="164" target="166" edge="1">
                    <mxGeometry width="80" relative="1" as="geometry">
                        <mxPoint x="450" y="250" as="sourcePoint"/>
                        <mxPoint x="530" y="250" as="targetPoint"/>
                    </mxGeometry>
                </mxCell>
                <mxCell id="201" value="schedule" style="html=1;verticalAlign=bottom;endArrow=block;" parent="228" source="166" target="199" edge="1">
                    <mxGeometry width="80" relative="1" as="geometry">
                        <mxPoint x="350" y="240" as="sourcePoint"/>
                        <mxPoint x="550" y="240" as="targetPoint"/>
                    </mxGeometry>
                </mxCell>
                <mxCell id="205" value="" style="html=1;points=[];perimeter=orthogonalPerimeter;" parent="228" vertex="1">
                    <mxGeometry x="1110" y="290" width="10" height="80" as="geometry"/>
                </mxCell>
                <mxCell id="211" value="scheduleTransaction" style="html=1;verticalAlign=bottom;endArrow=block;entryX=-0.08;entryY=0.228;entryDx=0;entryDy=0;entryPerimeter=0;exitX=0.978;exitY=0.546;exitDx=0;exitDy=0;exitPerimeter=0;" parent="228" source="199" target="203" edge="1">
                    <mxGeometry width="80" relative="1" as="geometry">
                        <mxPoint x="590" y="270" as="sourcePoint"/>
                        <mxPoint x="680" y="270" as="targetPoint"/>
                    </mxGeometry>
                </mxCell>
                <mxCell id="212" value="scheduleTransaction" style="html=1;verticalAlign=bottom;endArrow=block;exitX=0.835;exitY=0.5;exitDx=0;exitDy=0;exitPerimeter=0;entryX=0;entryY=0.2;entryDx=0;entryDy=0;entryPerimeter=0;" parent="228" source="203" target="206" edge="1">
                    <mxGeometry width="80" relative="1" as="geometry">
                        <mxPoint x="820" y="300" as="sourcePoint"/>
                        <mxPoint x="900" y="300" as="targetPoint"/>
                    </mxGeometry>
                </mxCell>
                <mxCell id="213" value="handleMessage" style="html=1;verticalAlign=bottom;endArrow=block;exitX=1.112;exitY=0.65;exitDx=0;exitDy=0;exitPerimeter=0;entryX=-0.031;entryY=0.4;entryDx=0;entryDy=0;entryPerimeter=0;" parent="228" source="206" target="205" edge="1">
                    <mxGeometry width="80" relative="1" as="geometry">
                        <mxPoint x="990" y="320" as="sourcePoint"/>
                        <mxPoint x="1070" y="320" as="targetPoint"/>
                    </mxGeometry>
                </mxCell>
                <mxCell id="214" value="execute" style="html=1;verticalAlign=bottom;endArrow=block;exitX=1.169;exitY=0.671;exitDx=0;exitDy=0;exitPerimeter=0;entryX=-0.017;entryY=0.443;entryDx=0;entryDy=0;entryPerimeter=0;" parent="228" source="205" target="204" edge="1">
                    <mxGeometry width="80" relative="1" as="geometry">
                        <mxPoint x="1144" y="320" as="sourcePoint"/>
                        <mxPoint x="1224" y="320" as="targetPoint"/>
                    </mxGeometry>
                </mxCell>
                <mxCell id="216" value="sendMessage" style="edgeStyle=orthogonalEdgeStyle;html=1;align=left;spacingLeft=2;endArrow=block;rounded=0;entryX=1;entryY=0;" parent="228" edge="1">
                    <mxGeometry relative="1" as="geometry">
                        <mxPoint x="960" y="269.97" as="sourcePoint"/>
                        <Array as="points">
                            <mxPoint x="985" y="269.97"/>
                            <mxPoint x="985" y="289.97"/>
                        </Array>
                        <mxPoint x="965" y="289.97" as="targetPoint"/>
                    </mxGeometry>
                </mxCell>
                <mxCell id="218" value="executeCallbacks" style="edgeStyle=orthogonalEdgeStyle;html=1;align=left;spacingLeft=2;endArrow=block;rounded=0;entryX=1;entryY=0;" parent="228" source="204" edge="1">
                    <mxGeometry relative="1" as="geometry">
                        <mxPoint x="1270" y="319.99" as="sourcePoint"/>
                        <Array as="points">
                            <mxPoint x="1295" y="320"/>
                            <mxPoint x="1295" y="340"/>
                        </Array>
                        <mxPoint x="1275" y="339.99" as="targetPoint"/>
                    </mxGeometry>
                </mxCell>
                <mxCell id="219" value="handleLaunchActivity" style="html=1;verticalAlign=bottom;endArrow=block;" parent="228" source="208" target="189" edge="1">
                    <mxGeometry width="80" relative="1" as="geometry">
                        <mxPoint x="1490" y="370" as="sourcePoint"/>
                        <mxPoint x="1570" y="370" as="targetPoint"/>
                    </mxGeometry>
                </mxCell>
                <mxCell id="220" value="execute" style="html=1;verticalAlign=bottom;endArrow=block;exitX=0.989;exitY=0.743;exitDx=0;exitDy=0;exitPerimeter=0;entryX=-0.011;entryY=0.346;entryDx=0;entryDy=0;entryPerimeter=0;" parent="228" source="204" target="208" edge="1">
                    <mxGeometry width="80" relative="1" as="geometry">
                        <mxPoint x="1310" y="390" as="sourcePoint"/>
                        <mxPoint x="1390" y="390" as="targetPoint"/>
                    </mxGeometry>
                </mxCell>
                <mxCell id="223" value="performLaunchActivity" style="edgeStyle=orthogonalEdgeStyle;html=1;align=left;spacingLeft=2;endArrow=block;rounded=0;entryX=1;entryY=0;exitX=0.875;exitY=0.225;exitDx=0;exitDy=0;exitPerimeter=0;" parent="228" source="207" edge="1">
                    <mxGeometry relative="1" as="geometry">
                        <mxPoint x="1650" y="380" as="sourcePoint"/>
                        <Array as="points">
                            <mxPoint x="1644" y="380"/>
                            <mxPoint x="1675" y="380"/>
                            <mxPoint x="1675" y="400"/>
                        </Array>
                        <mxPoint x="1655" y="400" as="targetPoint"/>
                    </mxGeometry>
                </mxCell>
                <mxCell id="224" value="callActivityOnCreate" style="html=1;verticalAlign=bottom;endArrow=block;exitX=0.932;exitY=0.889;exitDx=0;exitDy=0;exitPerimeter=0;entryX=0.046;entryY=0.653;entryDx=0;entryDy=0;entryPerimeter=0;" parent="228" source="207" target="210" edge="1">
                    <mxGeometry width="80" relative="1" as="geometry">
                        <mxPoint x="1660" y="430" as="sourcePoint"/>
                        <mxPoint x="1740" y="430" as="targetPoint"/>
                    </mxGeometry>
                </mxCell>
                <mxCell id="225" value="performCreate" style="html=1;verticalAlign=bottom;endArrow=block;" parent="228" edge="1">
                    <mxGeometry width="80" relative="1" as="geometry">
                        <mxPoint x="1815" y="452" as="sourcePoint"/>
                        <mxPoint x="1940" y="452" as="targetPoint"/>
                        <Array as="points"/>
                    </mxGeometry>
                </mxCell>
                <mxCell id="227" value="onCreate" style="edgeStyle=orthogonalEdgeStyle;html=1;align=left;spacingLeft=2;endArrow=block;rounded=0;entryX=1;entryY=0;exitX=1.175;exitY=0.244;exitDx=0;exitDy=0;exitPerimeter=0;" parent="228" source="209" edge="1">
                    <mxGeometry relative="1" as="geometry">
                        <mxPoint x="1960" y="430" as="sourcePoint"/>
                        <Array as="points">
                            <mxPoint x="1985" y="430"/>
                            <mxPoint x="1985" y="450"/>
                        </Array>
                        <mxPoint x="1965" y="450" as="targetPoint"/>
                    </mxGeometry>
                </mxCell>
                <mxCell id="249" value="" style="group" vertex="1" connectable="0" parent="1">
                    <mxGeometry x="870" y="30" width="710" height="460" as="geometry"/>
                </mxCell>
                <mxCell id="229" value="&lt;span style=&quot;color: rgb(102 , 204 , 0) ; font-size: 20px&quot;&gt;系统资源加载&lt;/span&gt;" style="text;html=1;align=center;verticalAlign=middle;resizable=0;points=[];autosize=1;" vertex="1" parent="249">
                    <mxGeometry x="10" width="140" height="20" as="geometry"/>
                </mxCell>
                <mxCell id="230" value="&lt;font style=&quot;font-size: 16px&quot;&gt;ActivityThread&lt;/font&gt;" style="shape=umlLifeline;perimeter=lifelinePerimeter;whiteSpace=wrap;html=1;container=1;collapsible=0;recursiveResize=0;outlineConnect=0;" vertex="1" parent="249">
                    <mxGeometry y="50" width="110" height="390" as="geometry"/>
                </mxCell>
                <mxCell id="231" value="" style="html=1;points=[];perimeter=orthogonalPerimeter;" vertex="1" parent="230">
                    <mxGeometry x="50" y="60" width="10" height="150" as="geometry"/>
                </mxCell>
                <mxCell id="232" value="&lt;font style=&quot;font-size: 16px&quot;&gt;Instrumentation&lt;/font&gt;" style="shape=umlLifeline;perimeter=lifelinePerimeter;whiteSpace=wrap;html=1;container=1;collapsible=0;recursiveResize=0;outlineConnect=0;" vertex="1" parent="249">
                    <mxGeometry x="590" y="50" width="120" height="390" as="geometry"/>
                </mxCell>
                <mxCell id="233" value="" style="html=1;points=[];perimeter=orthogonalPerimeter;" vertex="1" parent="232">
                    <mxGeometry x="55" y="300" width="10" height="80" as="geometry"/>
                </mxCell>
                <mxCell id="234" value="&lt;font style=&quot;font-size: 16px&quot;&gt;ResourcesManager&lt;/font&gt;" style="shape=umlLifeline;perimeter=lifelinePerimeter;whiteSpace=wrap;html=1;container=1;collapsible=0;recursiveResize=0;outlineConnect=0;" vertex="1" parent="249">
                    <mxGeometry x="371" y="50" width="160" height="410" as="geometry"/>
                </mxCell>
                <mxCell id="235" value="" style="html=1;points=[];perimeter=orthogonalPerimeter;" vertex="1" parent="234">
                    <mxGeometry x="75" y="150" width="10" height="240" as="geometry"/>
                </mxCell>
                <mxCell id="236" value="&lt;font style=&quot;font-size: 16px&quot;&gt;ContextImpl&lt;/font&gt;" style="shape=umlLifeline;perimeter=lifelinePerimeter;whiteSpace=wrap;html=1;container=1;collapsible=0;recursiveResize=0;outlineConnect=0;" vertex="1" parent="249">
                    <mxGeometry x="240" y="50" width="110" height="400" as="geometry"/>
                </mxCell>
                <mxCell id="237" value="" style="html=1;points=[];perimeter=orthogonalPerimeter;" vertex="1" parent="236">
                    <mxGeometry x="50" y="130" width="10" height="140" as="geometry"/>
                </mxCell>
                <mxCell id="240" value="&lt;font style=&quot;font-size: 14px&quot;&gt;handleLaunchActivity&lt;/font&gt;" style="edgeStyle=orthogonalEdgeStyle;html=1;align=left;spacingLeft=2;endArrow=block;rounded=0;entryX=1;entryY=0;" edge="1" parent="249">
                    <mxGeometry relative="1" as="geometry">
                        <mxPoint x="60" y="120" as="sourcePoint"/>
                        <Array as="points">
                            <mxPoint x="85" y="120"/>
                        </Array>
                        <mxPoint x="65" y="140" as="targetPoint"/>
                    </mxGeometry>
                </mxCell>
                <mxCell id="241" value="&lt;font style=&quot;font-size: 14px&quot;&gt;performLaunchActivity&lt;/font&gt;" style="edgeStyle=orthogonalEdgeStyle;html=1;align=left;spacingLeft=2;endArrow=block;rounded=0;entryX=1;entryY=0;" edge="1" parent="249">
                    <mxGeometry relative="1" as="geometry">
                        <mxPoint x="60" y="160" as="sourcePoint"/>
                        <Array as="points">
                            <mxPoint x="85" y="160"/>
                        </Array>
                        <mxPoint x="65" y="180" as="targetPoint"/>
                    </mxGeometry>
                </mxCell>
                <mxCell id="242" value="&lt;font style=&quot;font-size: 14px&quot;&gt;createBaseContextForActivity&lt;/font&gt;" style="html=1;verticalAlign=bottom;endArrow=block;exitX=0.961;exitY=0.84;exitDx=0;exitDy=0;exitPerimeter=0;" edge="1" parent="249" source="231" target="237">
                    <mxGeometry width="80" relative="1" as="geometry">
                        <mxPoint x="340" y="370" as="sourcePoint"/>
                        <mxPoint x="220" y="236" as="targetPoint"/>
                    </mxGeometry>
                </mxCell>
                <mxCell id="243" value="&lt;font style=&quot;font-size: 14px&quot;&gt;createActivityContext&lt;/font&gt;" style="html=1;verticalAlign=bottom;endArrow=block;exitX=1.061;exitY=0.629;exitDx=0;exitDy=0;exitPerimeter=0;" edge="1" parent="249" source="237" target="235">
                    <mxGeometry width="80" relative="1" as="geometry">
                        <mxPoint x="340" y="370" as="sourcePoint"/>
                        <mxPoint x="420" y="370" as="targetPoint"/>
                    </mxGeometry>
                </mxCell>
                <mxCell id="244" value="&lt;font style=&quot;font-size: 14px&quot;&gt;createBaseActivityResources&lt;/font&gt;" style="edgeStyle=orthogonalEdgeStyle;html=1;align=left;spacingLeft=2;endArrow=block;rounded=0;entryX=1;entryY=0;" edge="1" parent="249">
                    <mxGeometry relative="1" as="geometry">
                        <mxPoint x="460" y="235" as="sourcePoint"/>
                        <Array as="points">
                            <mxPoint x="485" y="235"/>
                        </Array>
                        <mxPoint x="465" y="255" as="targetPoint"/>
                    </mxGeometry>
                </mxCell>
                <mxCell id="245" value="&lt;font style=&quot;font-size: 14px&quot;&gt;getOrCreateResources&lt;/font&gt;" style="edgeStyle=orthogonalEdgeStyle;html=1;align=left;spacingLeft=2;endArrow=block;rounded=0;entryX=1;entryY=0;" edge="1" parent="249">
                    <mxGeometry relative="1" as="geometry">
                        <mxPoint x="460" y="280" as="sourcePoint"/>
                        <Array as="points">
                            <mxPoint x="485" y="280"/>
                        </Array>
                        <mxPoint x="465" y="300" as="targetPoint"/>
                    </mxGeometry>
                </mxCell>
                <mxCell id="246" value="&lt;font style=&quot;font-size: 14px&quot;&gt;createResourcesImpl&lt;/font&gt;" style="edgeStyle=orthogonalEdgeStyle;html=1;align=left;spacingLeft=2;endArrow=block;rounded=0;entryX=1;entryY=0;" edge="1" parent="249">
                    <mxGeometry relative="1" as="geometry">
                        <mxPoint x="460" y="330" as="sourcePoint"/>
                        <Array as="points">
                            <mxPoint x="485" y="330"/>
                        </Array>
                        <mxPoint x="465" y="350" as="targetPoint"/>
                    </mxGeometry>
                </mxCell>
                <mxCell id="247" value="&lt;font style=&quot;font-size: 14px&quot;&gt;createAssetManager&lt;/font&gt;" style="edgeStyle=orthogonalEdgeStyle;html=1;align=left;spacingLeft=2;endArrow=block;rounded=0;entryX=1;entryY=0;" edge="1" parent="249">
                    <mxGeometry relative="1" as="geometry">
                        <mxPoint x="460" y="380" as="sourcePoint"/>
                        <Array as="points">
                            <mxPoint x="485" y="380"/>
                        </Array>
                        <mxPoint x="465" y="400" as="targetPoint"/>
                    </mxGeometry>
                </mxCell>
                <mxCell id="248" value="addAssetPath" style="html=1;verticalAlign=bottom;endArrow=block;entryX=0.261;entryY=1.013;entryDx=0;entryDy=0;entryPerimeter=0;" edge="1" parent="249" source="235" target="233">
                    <mxGeometry width="80" relative="1" as="geometry">
                        <mxPoint x="340" y="370" as="sourcePoint"/>
                        <mxPoint x="420" y="370" as="targetPoint"/>
                    </mxGeometry>
                </mxCell>
            </root>
        </mxGraphModel>
    </diagram>
</mxfile>